:SAMPLES-PER-SECOND 30
:FULLY-SPECIFIED
:DEGREES
501
root  -26.1162 30.4573 -5.49028 17.1219 -75.1804 -16.44
RightUpLeg  -23.369 14.4704 -0.77222
RightLeg  52.2885 2.56285 2.85069
RightFoot  -15.5421 -0.206662 -1.13678
RightToes  -42.9345 -0.242339 -0.331092
Spine  6.42526 -5.00914 -4.8646
Spine1  12.8401 -9.49313 -10.3264
HEad  -28.4243 -39.283 41.9206
LeftShoulder1  0 -2.42657e-020 -4.95415e-022
LeftArm  -6.93723 3.60593 -80.806
LeftForeArm  113.498 -79.7337 -79.1483
LeftHand  -2.01305 -10.1056 22.1219
RightShoulder  0 2.42657e-020 1.07489e-018
RightArm  -122.685 18.867 -41.7693
RightForeArm  45.3629 27.3339 5.20673
RightHand  -3.5569 17.2434 -22.7845
LeftUpLeg  -29.5642 -8.32951 18.7166
LeftLeg  48.0899 -6.12755 -5.97603
LeftFoot  -7.86178 0.0752102 1.09448
LeftToes  -43.1896 1.33192e-006 1.13262e-007
502
root  -26.6756 33.2206 -5.60482 20.6137 -76.6766 -19.5564
RightUpLeg  -13.7517 15.0417 0.131934
RightLeg  32.5473 4.91887 2.695
RightFoot  -0.476546 -0.00244357 -0.210339
RightToes  -46.2069 -0.269867 -0.347433
Spine  5.42252 -4.15883 -4.64696
Spine1  10.8036 -7.88552 -9.88003
HEad  -29.7547 -40.4249 41.1697
LeftShoulder1  0 -2.42657e-020 -4.95415e-022
LeftArm  -5.47655 3.89549 -79.6736
LeftForeArm  126.448 -79.9054 -91.3589
LeftHand  -2.156 -10.8893 21.9791
RightShoulder  0 2.42657e-020 1.07489e-018
RightArm  -121.967 15.0387 -44.8967
RightForeArm  44.4349 26.3122 4.98075
RightHand  -3.74502 17.0039 -24.312
LeftUpLeg  -17.4182 -6.36258 18.0569
LeftLeg  26.7339 -8.03259 -3.40629
LeftFoot  6.19918 0.0544829 -1.00612
LeftToes  -42.9786 1.33192e-006 1.13262e-007
503
root  -27.1049 36.2773 -5.7651 25.9312 -77.9604 -21.6895
RightUpLeg  -6.45967 15.527 0.528886
RightLeg  10.4979 4.27431 0.511865
RightFoot  24.8767 -0.285974 1.67399
RightToes  -44.5006 -0.255397 -0.339108
Spine  3.0794 -3.16338 -3.90242
Spine1  6.49866 -6.13247 -9.84464
HEad  -29.2198 -41.3101 39.7282
LeftShoulder1  0 -2.42657e-020 -4.95415e-022
LeftArm  -8.79815 10.6626 -79.2507
LeftForeArm  132.962 -79.7981 -98.3395
LeftHand  -1.73295 -11.0764 17.3716
RightShoulder  0 2.42657e-020 1.07489e-018
RightArm  -121.867 11.6346 -47.5693
RightForeArm  43.5198 23.4892 4.3745
RightHand  -3.58181 17.5241 -22.5732
LeftUpLeg  -9.05125 7.134 16.5371
LeftLeg  4.41157 -16.9039 -0.212704
LeftFoot  30.7203 2.46675 -8.96297
LeftToes  -31.5409 1.33192e-006 1.13262e-007
504
root  -27.1248 39.0313 -5.68562 14.7988 -78.212 -5.44646
RightUpLeg  -8.97856 -1.68746 -1.94837
RightLeg  4.12949 11.8754 0.0952945
RightFoot  43.1885 -3.0622 8.10402
RightToes  -37.5627 -0.199312 -0.300945
Spine  0.444454 -3.67929 -5.29663
Spine1  2.05414 -7.64432 -11.4985
HEad  -29.7426 -41.1386 39.2691
LeftShoulder1  0 -2.42657e-020 -4.95415e-022
LeftArm  -13.0175 19.2592 -76.2507
LeftForeArm  128.968 -79.6878 -101.586
LeftHand  -1.50021 -9.41453 17.7118
RightShoulder  0 2.42657e-020 1.07489e-018
RightArm  -121.978 9.37099 -52.8683
RightForeArm  42.7414 14.9176 2.67539
RightHand  -3.18921 16.9471 -20.8062
LeftUpLeg  -12.9617 28.5696 6.50991
LeftLeg  0.0636664 -26.8867 1.63792
LeftFoot  35.4458 5.53143 -17.1917
LeftToes  -26.799 1.33192e-006 1.13262e-007
505
root  -27.1939 41.4228 -5.92012 12.6727 -76.3813 -2.89969
RightUpLeg  -7.19085 -2.06728 -0.392997
RightLeg  3.75975 6.1515 0.00973402
RightFoot  36.8464 -1.03505 3.48409
RightToes  -29.9929 -0.143872 -0.251917
Spine  -0.23428 -3.29162 -5.75976
Spine1  0.999153 -7.08406 -11.221
HEad  -33.2149 -42.6653 40.5892
LeftShoulder1  0 -2.42657e-020 -4.95415e-022
LeftArm  -16.0579 21.7212 -74.6665
LeftForeArm  94.0354 -78.5131 -60.9979
LeftHand  -1.62952 -11.0017 16.4406
RightShoulder  0 2.42657e-020 1.07489e-018
RightArm  -120.098 6.30586 -58.9282
RightForeArm  52.8281 3.77819 0.643625
RightHand  -2.73393 17.8134 -16.9515
LeftUpLeg  -13.3028 22.9839 5.81314
LeftLeg  6.1667 -17.2819 -0.739311
LeftFoot  37.147 3.69697 -10.9723
LeftToes  -17.4126 1.33192e-006 1.13262e-007
506
root  -27.2738 43.4131 -6.23567 9.72711 -76.7238 -2.79535
RightUpLeg  -3.4139 3.20527 1.76826
RightLeg  6.68465 -0.470901 -0.0233091
RightFoot  30.879 0.21141 -0.38789
RightToes  -25.3688 -0.113365 -0.218525
Spine  1.04513 -2.29237 -6.57075
Spine1  2.97904 -4.70363 -12.2921
HEad  -36.5984 -41.5021 42.8381
LeftShoulder1  0 -2.42657e-020 -4.95415e-022
LeftArm  -21.3815 21.6302 -72.7775
LeftForeArm  73.6518 -74.3994 -39.4466
LeftHand  -1.4369 -10.3746 15.3691
RightShoulder  0 2.42657e-020 1.07489e-018
RightArm  -112.273 4.61341 -57.6539
RightForeArm  47.1281 -0.148433 -0.0351571
RightHand  -2.71293 15.7773 -19.0334
LeftUpLeg  -8.13568 12.6683 6.95758
LeftLeg  9.10966 -10.4957 -0.992662
LeftFoot  39.5434 2.48103 -6.89478
LeftToes  -16.1015 1.33192e-006 1.13262e-007
507
root  -27.4225 44.8366 -6.41049 9.10416 -76.5387 -3.85704
RightUpLeg  0.15795 3.93042 3.86784
RightLeg  7.74756 -1.495 -0.104707
RightFoot  33.3537 0.385035 -0.907657
RightToes  -33.3047 -0.167327 -0.274266
Spine  1.48632 -2.28544 -6.03502
Spine1  3.53926 -4.41285 -12.7299
HEad  -35.9139 -41.1655 42.374
LeftShoulder1  0 -2.42657e-020 -4.95415e-022
LeftArm  -25.8765 25.2625 -69.6945
LeftForeArm  57.1018 -73.0458 -35.6185
LeftHand  -1.05766 -8.62926 13.5904
RightShoulder  0 2.42657e-020 1.07489e-018
RightArm  -111.797 6.81258 -53.4428
RightForeArm  34.8262 -0.113291 -0.0142603
RightHand  -2.34153 14.8341 -17.4812
LeftUpLeg  -8.73209 7.49462 6.54287
LeftLeg  19.6959 -12.3623 -3.5185
LeftFoot  35.7619 2.47907 -7.6738
LeftToes  -22.0235 1.33192e-006 1.13262e-007
508
root  -27.682 45.8257 -6.6087 8.58159 -76.7027 -4.28578
RightUpLeg  1.56722 5.20829 5.3012
RightLeg  11.4293 -0.436461 -0.0581067
RightFoot  35.0644 0.216444 -0.307564
RightToes  -31.597 -0.155071 -0.262911
Spine  1.47656 -2.27369 -5.81221
Spine1  3.40795 -4.30153 -12.5924
HEad  -36.5355 -42.3921 43.0673
LeftShoulder1  0 -2.42657e-020 -4.95415e-022
LeftArm  -32.1603 28.5434 -66.24
LeftForeArm  53.6953 -71.7329 -32.5256
LeftHand  -0.931045 -8.49046 12.1332
RightShoulder  0 2.42657e-020 1.07489e-018
RightArm  -114.928 8.14108 -49.2773
RightForeArm  38.3483 -0.123798 -0.0194643
RightHand  -1.39575 16.3244 -9.34214
LeftUpLeg  -9.25203 6.83482 5.87372
LeftLeg  27.6573 -14.3914 -6.31069
LeftFoot  37.0226 3.26221 -9.72259
LeftToes  -18.2332 1.33192e-006 1.13262e-007
509
root  -27.6731 46.376 -6.8329 8.50146 -76.2683 -4.3287
RightUpLeg  1.15653 6.42472 6.20292
RightLeg  15.6726 -0.23251 -0.0490088
RightFoot  34.0375 0.17363 -0.189695
RightToes  -32.8071 -0.163721 -0.270995
Spine  1.47962 -2.29583 -5.60191
Spine1  3.36793 -4.34838 -12.1522
HEad  -38.6547 -42.3894 44.0508
LeftShoulder1  0 -2.42657e-020 -4.95415e-022
LeftArm  -36.8705 29.9804 -61.3615
LeftForeArm  52.9953 -68.8894 -27.3348
LeftHand  -1.07372 -9.24762 12.857
RightShoulder  0 2.42657e-020 1.07489e-018
RightArm  -107.108 8.34996 -47.3084
RightForeArm  46.5604 -0.146916 -0.0340298
RightHand  -1.36194 17.0118 -8.72113
LeftUpLeg  -10.2222 7.64711 5.08553
LeftLeg  31.7248 -12.9615 -6.81705
LeftFoot  42.3334 3.91985 -10.1012
LeftToes  -22.5403 1.33192e-006 1.13262e-007
510
root  -27.5407 46.485 -7.04337 7.67891 -75.4171 -3.43761
RightUpLeg  0.774689 4.39317 5.74826
RightLeg  18.2215 0.306372 0.0788982
RightFoot  31.8332 0.0792267 0.099726
RightToes  -33.8108 -0.171024 -0.27756
Spine  1.6541 -2.44799 -5.51772
Spine1  3.72669 -4.64789 -11.9281
HEad  -39.9757 -41.6136 44.3027
LeftShoulder1  0 -2.42657e-020 -4.95415e-022
LeftArm  -40.247 30.2456 -55.3617
LeftForeArm  46.9517 -64.8181 -22.1296
LeftHand  -1.0254 -8.78385 12.9314
RightShoulder  0 2.42657e-020 1.07489e-018
RightArm  -102.493 7.44651 -45.6963
RightForeArm  49.1187 0.451442 0.0666456
RightHand  -1.3968 18.1197 -8.37614
LeftUpLeg  -11.3444 8.92189 4.27429
LeftLeg  34.5578 -11.0537 -6.54403
LeftFoot  40.5563 3.14947 -8.51059
LeftToes  -27.796 1.33192e-006 1.13262e-007
511
root  -27.3408 46.1856 -7.21373 7.08485 -75.1649 -2.5947
RightUpLeg  0.207474 3.08495 4.69463
RightLeg  19.4167 0.092821 0.0250797
RightFoot  32.3385 0.11767 -0.0282822
RightToes  -33.9819 -0.174245 -0.2804
Spine  1.74861 -2.4704 -5.36214
Spine1  3.92702 -4.6996 -11.6116
HEad  -40.9758 -40.9462 44.3545
LeftShoulder1  0 -2.42657e-020 -4.95415e-022
LeftArm  -42.6925 30.6899 -49.2634
LeftForeArm  37.0249 -59.4708 -17.4622
LeftHand  -0.828573 -7.63892 12.0039
RightShoulder  0 2.42657e-020 1.07489e-018
RightArm  -104.884 6.3952 -43.3059
RightForeArm  46.2128 3.09939 0.535265
RightHand  -1.38782 21.3797 -6.97432
LeftUpLeg  -12.0551 10.349 3.50461
LeftLeg  34.8236 -10.4696 -6.27021
LeftFoot  38.0401 2.64504 -7.66296
LeftToes  -20.8894 1.33192e-006 1.13262e-007
512
root  -27.0647 45.4896 -7.43062 7.66289 -75.7817 -2.46886
RightUpLeg  -1.42846 3.63238 3.66821
RightLeg  20.219 -0.154867 -0.0474262
RightFoot  34.0525 0.172082 -0.184377
RightToes  -34.3513 -0.175004 -0.281042
Spine  1.86327 -2.57799 -5.18688
Spine1  4.15758 -4.91527 -11.2659
HEad  -42.3081 -40.3826 45.3812
LeftShoulder1  0 -2.42657e-020 -4.95415e-022
LeftArm  -46.2742 32.3532 -43.9717
LeftForeArm  29.4033 -52.9715 -13.5517
LeftHand  -0.568302 -6.34106 9.87309
RightShoulder  0 2.42657e-020 1.07489e-018
RightArm  -107.942 6.14133 -40.7315
RightForeArm  42.2673 5.21649 0.913665
RightHand  -1.23616 22.549 -5.82652
LeftUpLeg  -11.3075 14.1489 3.06103
LeftLeg  29.4274 -11.479 -5.48554
LeftFoot  40.7356 3.15746 -8.49137
LeftToes  -19.781 1.33192e-006 1.13262e-007
